<svg width="284" height="310" viewBox="0 0 284 310" fill="none" xmlns="http://www.w3.org/2000/svg">
<g clip-path="url(#clip0_109_192)">
<mask id="mask0_109_192" style="mask-type:luminance" maskUnits="userSpaceOnUse" x="39" y="130" width="102" height="97">
<path d="M39.2236 130.667H141V226.761H39.2236V130.667Z" fill="white"/>
</mask>
<g mask="url(#mask0_109_192)">
<path fill-rule="evenodd" clip-rule="evenodd" d="M106.531 131.229L62.041 152.089C60.8796 152.641 59.7493 153.24 58.6504 153.901C57.5514 154.558 56.4837 155.271 55.4525 156.032C54.4212 156.797 53.4316 157.61 52.4785 158.469C51.5254 159.328 50.6191 160.235 49.7546 161.183C48.89 162.131 48.0775 163.12 47.3118 164.146C46.5462 165.177 45.8275 166.24 45.166 167.339C44.5046 168.438 43.9004 169.568 43.3483 170.724C42.7962 171.881 42.3014 173.063 41.8639 174.271C41.4264 175.474 41.0514 176.703 40.7337 177.943C40.4212 179.188 40.166 180.443 39.9733 181.714C39.7754 182.979 39.6452 184.256 39.5775 185.537C39.5098 186.818 39.5046 188.099 39.5618 189.381C39.6191 190.662 39.7337 191.938 39.916 193.209C40.0983 194.474 40.3431 195.735 40.6452 196.979C40.9525 198.224 41.3171 199.453 41.7389 200.667C42.166 201.875 42.6504 203.063 43.1921 204.224C43.7389 205.386 44.3431 206.516 44.9993 207.615C45.6608 208.719 46.3691 209.782 47.1348 210.813C47.8952 211.844 48.7077 212.839 49.5671 213.787C50.4264 214.74 51.3327 215.646 52.2806 216.511C53.2285 217.375 54.2181 218.188 55.2493 218.959C56.2754 219.724 57.3379 220.438 58.4368 221.099C59.5358 221.761 60.666 222.37 61.8223 222.922C62.9785 223.474 64.1608 223.969 65.3691 224.401C66.5775 224.839 67.8014 225.214 69.0462 225.532C70.2858 225.849 71.541 226.104 72.8118 226.297C74.0775 226.49 75.3535 226.62 76.6348 226.688C77.916 226.761 79.1973 226.766 80.4785 226.709C81.7598 226.651 83.0358 226.532 84.3066 226.349C85.5775 226.167 86.8327 225.922 88.0827 225.62C89.3275 225.313 90.5566 224.948 91.765 224.526C92.9733 224.099 94.1608 223.615 95.3275 223.073L139.676 202.282L139.921 202.162L106.635 131.183L106.531 131.229ZM108.479 144.412L69.4629 162.709C69.0254 162.912 68.5618 163.026 68.0827 163.047C67.5983 163.068 67.1296 162.995 66.6764 162.834C66.2181 162.667 65.8118 162.422 65.4577 162.094C65.0983 161.771 64.8171 161.386 64.6139 160.948C64.4108 160.511 64.2962 160.052 64.2754 159.568C64.2546 159.084 64.3223 158.615 64.4889 158.162C64.6556 157.709 64.9004 157.302 65.2285 156.943C65.5514 156.589 65.9368 156.308 66.3743 156.099L105.39 137.808L108.479 144.412Z" fill="#00FF6A"/>
</g>
<mask id="mask1_109_192" style="mask-type:luminance" maskUnits="userSpaceOnUse" x="146" y="129" width="102" height="97">
<path d="M146.333 129.333H247.224V225.333H146.333V129.333Z" fill="white"/>
</mask>
<g mask="url(#mask1_109_192)">
<path fill-rule="evenodd" clip-rule="evenodd" d="M146.453 202.036L191.542 221.854C192.714 222.365 193.911 222.818 195.135 223.214C196.354 223.609 197.589 223.948 198.844 224.219C200.099 224.495 201.359 224.708 202.635 224.859C203.906 225.01 205.188 225.099 206.469 225.125C207.75 225.151 209.031 225.115 210.307 225.016C211.589 224.911 212.859 224.75 214.12 224.526C215.385 224.302 216.635 224.021 217.87 223.672C219.104 223.328 220.318 222.922 221.516 222.453C222.708 221.99 223.88 221.469 225.026 220.891C226.167 220.307 227.281 219.677 228.365 218.984C229.448 218.297 230.49 217.557 231.5 216.766C232.51 215.974 233.479 215.135 234.406 214.25C235.333 213.365 236.219 212.438 237.052 211.464C237.891 210.495 238.677 209.484 239.417 208.432C240.156 207.385 240.839 206.302 241.469 205.188C242.104 204.068 242.677 202.927 243.198 201.75C243.708 200.578 244.167 199.38 244.563 198.156C244.953 196.938 245.292 195.703 245.563 194.448C245.839 193.193 246.052 191.932 246.203 190.656C246.354 189.385 246.443 188.104 246.469 186.823C246.49 185.542 246.453 184.26 246.354 182.979C246.255 181.703 246.094 180.432 245.87 179.167C245.646 177.906 245.359 176.656 245.01 175.422C244.667 174.188 244.26 172.974 243.797 171.776C243.328 170.583 242.807 169.411 242.229 168.266C241.646 167.125 241.01 166.01 240.323 164.927C239.635 163.849 238.896 162.802 238.104 161.792C237.313 160.781 236.474 159.813 235.589 158.885C234.703 157.958 233.771 157.078 232.797 156.24C231.828 155.401 230.818 154.615 229.766 153.88C228.719 153.141 227.635 152.458 226.516 151.823C225.401 151.193 224.255 150.62 223.083 150.099L177.995 130.281L146.453 202.036ZM218.922 154.443C219.365 154.641 219.75 154.911 220.083 155.26C220.417 155.615 220.672 156.01 220.849 156.464C221.021 156.911 221.104 157.38 221.094 157.865C221.083 158.349 220.979 158.807 220.781 159.25C220.589 159.693 220.318 160.083 219.964 160.417C219.615 160.75 219.219 161.005 218.766 161.177C218.318 161.354 217.849 161.438 217.365 161.427C216.88 161.417 216.422 161.313 215.979 161.115L176.521 143.781L179.469 137.109L218.922 154.443Z" fill="#00FF6A"/>
</g>
<mask id="mask2_109_192" style="mask-type:luminance" maskUnits="userSpaceOnUse" x="155" y="61" width="38" height="67">
<path d="M155.667 61.7607H193V128H155.667V61.7607Z" fill="white"/>
</mask>
<g mask="url(#mask2_109_192)">
<path fill-rule="evenodd" clip-rule="evenodd" d="M162.604 127.276C144.088 87.8076 173.224 90.2712 178.693 61.8545C197.505 85.7243 198.693 114.198 166.422 127.511C163.724 108.089 183.568 92.0785 180.333 78.391C180.838 88.4014 162.078 107.177 162.604 127.276Z" fill="#00FF6A"/>
</g>
<path fill-rule="evenodd" clip-rule="evenodd" d="M117.51 129.349C84.484 117.078 102.677 101.979 89.7393 82.5049C114.109 85.6143 130.916 101.38 119.859 127.333C107.307 117.661 109.677 97.182 100.041 91.1247C106.036 96.5986 105.823 118.052 117.51 129.349Z" fill="#00FF6A"/>
<path fill-rule="evenodd" clip-rule="evenodd" d="M139.323 172.354C108.521 141.084 137.01 133.667 132.682 104.854C158.541 121.214 169.208 147.849 143.062 171.297C134 153.761 147.474 131.907 139.817 119.995C143.614 129.339 132.088 153.448 139.323 172.354Z" fill="#00FF6A"/>
<path d="M151.614 78.7083C151.974 78.6979 152.333 78.7239 152.692 78.7864C153.052 78.8489 153.401 78.9427 153.739 79.0729C154.078 79.2031 154.401 79.3645 154.708 79.5572C155.015 79.75 155.302 79.9739 155.562 80.2239C155.828 80.4739 156.062 80.7447 156.27 81.0416C156.484 81.3385 156.661 81.6562 156.807 81.9843C156.958 82.3177 157.073 82.6614 157.151 83.0156C157.229 83.3697 157.276 83.7291 157.286 84.0885C157.297 84.4531 157.27 84.8125 157.208 85.1718C157.145 85.5312 157.052 85.8802 156.922 86.2187C156.791 86.5572 156.63 86.8802 156.437 87.1875C156.239 87.4947 156.02 87.7812 155.77 88.0416C155.52 88.3072 155.244 88.5416 154.948 88.75C154.656 88.9635 154.338 89.1406 154.01 89.2864C153.677 89.4375 153.333 89.552 152.979 89.6302C152.625 89.7083 152.265 89.7552 151.901 89.7656C151.541 89.776 151.182 89.75 150.823 89.6875C150.463 89.625 150.114 89.5312 149.776 89.401C149.437 89.2708 149.114 89.1093 148.807 88.9114C148.5 88.7187 148.213 88.5 147.953 88.25C147.687 88 147.453 87.7239 147.244 87.427C147.031 87.1302 146.854 86.8177 146.708 86.4843C146.557 86.1562 146.442 85.8125 146.364 85.4583C146.286 85.1041 146.239 84.7447 146.229 84.3802C146.218 84.0208 146.244 83.6562 146.307 83.302C146.369 82.9427 146.463 82.5937 146.593 82.2552C146.724 81.9166 146.885 81.5937 147.078 81.2864C147.276 80.9791 147.494 80.6927 147.744 80.4322C147.994 80.1666 148.27 79.9322 148.567 79.7187C148.859 79.5104 149.177 79.3333 149.505 79.1822C149.838 79.0364 150.182 78.9218 150.536 78.8437C150.89 78.7604 151.25 78.7187 151.614 78.7083Z" fill="#00FF6A"/>
<path fill-rule="evenodd" clip-rule="evenodd" d="M146.365 180.479C146.365 180.026 146.281 179.593 146.109 179.177C145.932 178.76 145.687 178.396 145.37 178.078C145.052 177.76 144.688 177.515 144.271 177.343C143.854 177.172 143.422 177.083 142.969 177.083C142.521 177.083 142.089 177.172 141.672 177.343C141.255 177.515 140.891 177.76 140.573 178.078C140.255 178.396 140.01 178.765 139.839 179.182C139.667 179.599 139.578 180.031 139.578 180.479C139.578 180.932 139.667 181.364 139.839 181.776C140.01 182.192 140.26 182.562 140.578 182.88C140.896 183.198 141.26 183.442 141.677 183.614C142.094 183.786 142.526 183.869 142.979 183.869C143.427 183.869 143.859 183.781 144.276 183.609C144.688 183.437 145.052 183.192 145.37 182.875C145.687 182.552 145.932 182.187 146.104 181.771C146.276 181.359 146.365 180.927 146.365 180.479Z" fill="#00FF6A"/>
<path fill-rule="evenodd" clip-rule="evenodd" d="M138.073 95.8333C138.073 95.349 137.985 94.8854 137.797 94.4375C137.615 93.9896 137.349 93.599 137.011 93.2552C136.667 92.9167 136.271 92.651 135.828 92.4688C135.381 92.2813 134.917 92.1875 134.433 92.1875C133.948 92.1875 133.485 92.2813 133.037 92.4688C132.594 92.651 132.198 92.9167 131.854 93.2552C131.516 93.599 131.25 93.9896 131.068 94.4375C130.881 94.8854 130.792 95.349 130.792 95.8333C130.792 96.3125 130.881 96.7813 131.068 97.224C131.25 97.6719 131.516 98.0677 131.854 98.4063C132.198 98.75 132.594 99.0104 133.037 99.1979C133.485 99.3802 133.948 99.474 134.433 99.474C134.917 99.474 135.381 99.3802 135.823 99.1927C136.271 99.0104 136.667 98.7448 137.006 98.4063C137.349 98.0625 137.61 97.6719 137.797 97.224C137.979 96.776 138.073 96.3125 138.073 95.8333Z" fill="#00FF6A"/>
<path fill-rule="evenodd" clip-rule="evenodd" d="M171.276 136.833C171.276 136.234 171.162 135.656 170.927 135.099C170.698 134.542 170.37 134.052 169.943 133.625C169.521 133.198 169.026 132.87 168.474 132.641C167.917 132.411 167.339 132.297 166.735 132.297C166.136 132.297 165.552 132.411 165 132.641C164.443 132.87 163.953 133.198 163.526 133.625C163.099 134.052 162.771 134.542 162.542 135.099C162.313 135.656 162.198 136.234 162.198 136.833C162.198 137.438 162.313 138.016 162.542 138.573C162.771 139.13 163.099 139.62 163.526 140.047C163.953 140.469 164.443 140.797 165 141.031C165.552 141.26 166.136 141.375 166.735 141.375C167.339 141.375 167.917 141.255 168.469 141.026C169.026 140.797 169.516 140.469 169.943 140.042C170.37 139.615 170.698 139.125 170.927 138.573C171.157 138.016 171.271 137.438 171.276 136.833Z" fill="#00FF6A"/>
<path fill-rule="evenodd" clip-rule="evenodd" d="M121.271 138.171C121.271 137.786 121.198 137.416 121.052 137.062C120.906 136.708 120.698 136.395 120.427 136.125C120.156 135.849 119.843 135.64 119.489 135.494C119.135 135.349 118.765 135.276 118.38 135.276C118 135.27 117.63 135.349 117.276 135.494C116.922 135.64 116.604 135.849 116.333 136.119C116.062 136.39 115.854 136.703 115.708 137.057C115.562 137.416 115.489 137.781 115.489 138.166C115.489 138.552 115.562 138.921 115.708 139.276C115.854 139.63 116.067 139.942 116.338 140.213C116.609 140.484 116.922 140.692 117.276 140.838C117.63 140.984 118 141.057 118.385 141.057C118.765 141.057 119.135 140.984 119.489 140.838C119.843 140.692 120.156 140.484 120.427 140.213C120.698 139.942 120.906 139.63 121.052 139.276C121.198 138.921 121.271 138.552 121.271 138.171Z" fill="#00FF6A"/>
</g>
<defs>
<clipPath id="clip0_109_192">
<rect width="284" height="310" fill="white"/>
</clipPath>
</defs>
</svg>
