<svg width="128" height="19" viewBox="0 0 128 19" fill="none" xmlns="http://www.w3.org/2000/svg">
<path d="M14.4744 18.7905L14.4492 5.25283L8.80062 16.5392H7.77934L2.14342 5.32787V18.7905H0V0.209961H1.82821L8.33411 13.2674L14.7644 0.209961H16.5926L16.6178 18.7905H14.4744Z" fill="black"/>
<path d="M34.1104 16.4792V18.7905H22.7881V0.209961H33.8078V2.52127H25.0198V8.22451H32.8495V10.4758H25.0198V16.4792H34.1104Z" fill="black"/>
<path d="M39.2217 0.209961H45.8032C47.4486 0.209961 48.9112 0.600183 50.1909 1.38063C51.4675 2.15357 52.4604 3.24168 53.1665 4.65248C53.8726 6.06329 54.2256 7.68045 54.2256 9.50024C54.2256 11.3238 53.8726 12.9372 53.1665 14.348C52.4604 15.7513 51.4675 16.8394 50.1909 17.6198C48.9112 18.4003 47.4486 18.7905 45.8032 18.7905H39.2217V0.209961ZM45.6645 16.4792C46.9254 16.4792 48.0349 16.1903 48.9931 15.6087C49.9577 15.0196 50.6984 14.1979 51.2122 13.1473C51.7323 12.0967 51.9939 10.881 51.9939 9.50024C51.9939 8.11945 51.7323 6.90376 51.2122 5.85317C50.6984 4.79507 49.9577 3.97335 48.9931 3.39177C48.0349 2.81394 46.9254 2.52127 45.6645 2.52127H41.4534V16.4792H45.6645Z" fill="black"/>
<path d="M59.1348 0.209961H61.3664V18.7905H59.1348V0.209961Z" fill="black"/>
<path d="M70.8765 17.2191C69.9609 17.2191 69.1335 16.9161 68.3893 16.3027C67.6451 15.6967 67.0575 14.8468 66.6267 13.7604C66.2056 12.6814 66 11.4546 66 10.0948C66 8.75711 66.2056 7.54509 66.6267 6.4587C67.0575 5.3797 67.6451 4.52981 68.3893 3.91641C69.1335 3.3104 69.9658 3 70.896 3C71.6109 3 72.2718 3.19215 72.874 3.56167C73.4714 3.91641 73.9805 4.44852 74.4016 5.15799L73.5399 6.39958C72.8447 5.29841 71.983 4.74413 70.9548 4.74413C70.2596 4.74413 69.6329 4.98062 69.0747 5.45361C68.5264 5.92659 68.0955 6.56956 67.7822 7.37511C67.4786 8.18805 67.3317 9.08968 67.3317 10.0948C67.3317 11.122 67.4786 12.0384 67.7822 12.844C68.0955 13.6569 68.5264 14.2925 69.0747 14.7655C69.6329 15.2237 70.2596 15.4454 70.9548 15.4454C71.9732 15.4454 72.8349 14.8985 73.5399 13.79L74.4016 15.0315C73.9805 15.7632 73.4714 16.3175 72.874 16.687C72.2718 17.0417 71.606 17.2191 70.8765 17.2191Z" fill="black"/>
<path d="M79.7178 3.14746H81.0299V15.3268H86.0239V17.0709H79.7178V3.14746Z" fill="black"/>
<path d="M90.9717 3.14746H92.2838V17.0709H90.9717V3.14746Z" fill="black"/>
<path d="M106.417 3.14746V17.0709H105.34L99.7975 6.69485V17.0709H98.4854V3.14746H99.5625L105.105 13.5236V3.14746H106.417Z" fill="black"/>
<path d="M112.612 3.14746H113.924V17.0709H112.612V3.14746Z" fill="black"/>
<path d="M124.238 17.2191C123.322 17.2191 122.495 16.9161 121.751 16.3027C121.006 15.6967 120.419 14.8468 119.988 13.7604C119.567 12.6814 119.361 11.4546 119.361 10.0948C119.361 8.75711 119.567 7.54509 119.988 6.4587C120.419 5.3797 121.006 4.52981 121.751 3.91641C122.495 3.3104 123.327 3 124.257 3C124.972 3 125.633 3.19215 126.235 3.56167C126.833 3.91641 127.342 4.44852 127.763 5.15799L126.901 6.39958C126.206 5.29841 125.344 4.74413 124.316 4.74413C123.621 4.74413 122.994 4.98062 122.436 5.45361C121.888 5.92659 121.457 6.56956 121.143 7.37511C120.84 8.18805 120.693 9.08968 120.693 10.0948C120.693 11.122 120.84 12.0384 121.143 12.844C121.457 13.6569 121.888 14.2925 122.436 14.7655C122.994 15.2237 123.621 15.4454 124.316 15.4454C125.334 15.4454 126.196 14.8985 126.901 13.79L127.763 15.0315C127.342 15.7632 126.833 16.3175 126.235 16.687C125.633 17.0417 124.967 17.2191 124.238 17.2191Z" fill="black"/>
</svg>
